Coordinates
version=1
nRows=11
nColumns=63
inDegrees=yes

Units are S.I. units (second, meters, Newtons, ...)
If the header above contains a line with 'inDegrees', this indicates whether rotational values are in degrees (yes) or radians (no).

endheader
time	pelvis_tilt	pelvis_list	pelvis_rotation	pelvis_tx	pelvis_ty	pelvis_tz	hip_flexion_r	hip_adduction_r	hip_rotation_r	knee_angle_r	knee_angle_r_beta	ankle_angle_r	subtalar_angle_r	mtp_angle_r	hip_flexion_l	hip_adduction_l	hip_rotation_l	knee_angle_l	knee_angle_l_beta	ankle_angle_l	subtalar_angle_l	mtp_angle_l	L5_S1_Flex_Ext	L5_S1_Lat_Bending	L5_S1_axial_rotation	L4_L5_Flex_Ext	L4_L5_Lat_Bending	L4_L5_axial_rotation	L3_L4_Flex_Ext	L3_L4_Lat_Bending	L3_L4_axial_rotation	L2_L3_Flex_Ext	L2_L3_Lat_Bending	L2_L3_axial_rotation	L1_L2_Flex_Ext	L1_L2_Lat_Bending	L1_L2_axial_rotation	L1_T12_Flex_Ext	L1_T12_Lat_Bending	L1_T12_axial_rotation	Abs_r3	Abs_r2	Abs_r1	Abs_t1	Abs_t2	neck_flexion	neck_bending	neck_rotation	arm_flex_r	arm_add_r	arm_rot_r	elbow_flex_r	pro_sup_r	wrist_flex_r	wrist_dev_r	arm_flex_l	arm_add_l	arm_rot_l	elbow_flex_l	pro_sup_l	wrist_flex_l	wrist_dev_l
      2.06896552	     10.89782906	     -3.86256300	     86.72776968	      0.45799953	      0.76282074	      0.70970777	      5.75607621	      7.04519622	     10.09977522	      0.41696085	      0.00727734	     18.86006219	    -10.14143564	      0.00000000	      8.02903835	     -7.22124961	      0.76518507	      8.91170843	      0.15553865	     28.57969187	     -3.95810859	      0.00000000	      0.34037367	      1.17264336	     -0.83543145	      0.63210794	      1.55961567	     -0.88764592	      0.55919990	      2.85116508	     -0.88764592	      0.38901306	      2.85116508	     -0.73100252	      0.31607099	      2.39125435	     -0.67878805	      0.19448951	      1.81642457	     -0.62657359	      2.43125507	     13.26517626	     -4.64641910	      0.00000000	      0.00000000	     16.87286772	    -15.73141884	     40.13365627	     68.81583402	    -30.85429086	      8.42654159	     88.74656854	     89.30822313	    -18.07516397	      3.72800274	     64.99704818	    -47.11590409	      7.37772794	     82.98916508	     87.78162575	    -24.60373284	      4.75570438
      2.08620690	     10.76045325	     -3.85690921	     86.46955221	      0.45860833	      0.76254044	      0.71003863	      5.76863145	      6.94236541	     10.10758768	      0.42415048	      0.00740282	     18.94015869	     -9.92761300	      0.00000000	      7.98998579	     -7.13175794	      0.43482827	      8.90062501	      0.15534521	     28.60965811	     -4.00240095	      0.00000000	      0.34910482	      1.15274836	     -0.88692590	      0.64832257	      1.53315532	     -0.94235876	      0.57354431	      2.80279237	     -0.94235876	      0.39899190	      2.80279237	     -0.77606016	      0.32417874	      2.35068446	     -0.72062729	      0.19947850	      1.78560722	     -0.66519442	      2.49362085	     13.04012005	     -4.93281576	      0.00000000	      0.00000000	     16.18592114	    -14.54611881	     41.77678511	     70.03950449	    -31.08832637	      8.69172357	     89.41025164	     89.29513231	    -21.64474576	     -1.09891736	     65.48794430	    -48.99695714	      4.81953689	     84.60788481	     88.20030379	    -25.29529930	      6.83684629
      2.10344828	     10.72247630	     -3.91567546	     86.30175524	      0.45884471	      0.76196886	      0.71038793	      5.84891786	      6.92177519	      9.96284897	      0.43777520	      0.00764062	     19.10205856	     -9.68775018	      0.00000000	      8.03039815	     -7.11407738	      0.32370804	      8.93053569	      0.15586725	     28.59803806	     -4.06947146	      0.00000000	      0.35038120	      1.14762939	     -0.87626806	      0.65069293	      1.52634709	     -0.93103482	      0.57564128	      2.79034609	     -0.93103482	      0.40045068	      2.79034609	     -0.76673456	      0.32536398	      2.34024585	     -0.71196780	      0.20020782	      1.77767792	     -0.65720105	      2.50273789	     12.98221316	     -4.87354009	      0.00000000	      0.00000000	     16.72436842	    -14.19899499	     41.93671244	     71.27088892	    -31.78999912	      8.93166557	     90.32077157	     89.17902848	    -25.23895853	     -5.68530577	     65.96796522	    -50.66826033	      3.07718455	     86.31677923	     88.32107411	    -26.77650342	      6.87776860
      2.12068966	     10.73670662	     -4.01505759	     86.14018439	      0.45889985	      0.76127020	      0.71057150	      5.93567848	      6.93888218	      9.87576269	      0.43278759	      0.00755357	     19.21113249	     -9.43324708	      0.00000000	      8.07522319	     -7.13313609	      0.35420411	      8.97212251	      0.15659308	     28.52161186	     -4.21798446	      0.00000000	      0.34570155	      1.15434080	     -0.80950442	      0.64200234	      1.53527326	     -0.86009845	      0.56795307	      2.80666422	     -0.86009845	      0.39510230	      2.80666422	     -0.70831637	      0.32101846	      2.35393175	     -0.65772234	      0.19753386	      1.78807390	     -0.60712832	      2.46931158	     13.05813397	     -4.50222074	      0.00000000	      0.00000000	     18.15688798	    -14.41372260	     41.30411768	     72.35146933	    -32.85124194	      8.88318828	     91.71110833	     88.97796067	    -27.25649346	     -8.38408351	     66.39177035	    -52.34616070	      2.26568772	     87.95157761	     88.16648337	    -29.14588204	      5.12232874
      2.13793103	     10.70532764	     -4.24205074	     86.12447278	      0.45896799	      0.76031401	      0.71040974	      6.13129328	      6.91418500	      9.81038933	      0.42473038	      0.00741294	     19.28899941	     -9.43899565	      0.00000000	      8.19953192	     -7.10232848	      0.44947872	      8.92420330	      0.15575673	     28.29704733	     -4.21550452	      0.00000000	      0.36280859	      1.15085642	     -0.73869202	      0.67377183	      1.53063904	     -0.78486027	      0.59605823	      2.79819230	     -0.78486027	      0.41465393	      2.79819230	     -0.64635552	      0.33690405	      2.34682641	     -0.60018727	      0.20730883	      1.78267660	     -0.55401902	      2.59150546	     13.01871800	     -4.10838342	      0.00000000	      0.00000000	     20.00610968	    -14.37743258	     40.07644290	     72.98677659	    -34.17159006	      8.48511891	     93.50272237	     88.73859822	    -27.65049403	     -9.11319290	     66.50136871	    -53.94348109	      1.47383820	     89.87541743	     88.02156946	    -30.16179797	      3.69805794
      2.15517241	     10.83679249	     -4.36045842	     85.96916371	      0.45874573	      0.75958346	      0.71027037	      6.18372198	      7.03048290	      9.95358774	      0.42602451	      0.00743553	     19.33709019	     -9.34968523	      0.00000000	      8.22756811	     -7.22647535	      0.63461053	      9.03762337	      0.15773628	     27.97435724	     -4.54538306	      0.00000000	      0.35402409	      1.18086167	     -0.66044340	      0.65745814	      1.57054602	     -0.70172112	      0.58162618	      2.87114706	     -0.70172112	      0.40461413	      2.87114706	     -0.57788798	      0.32874677	      2.40801311	     -0.53661027	      0.20228937	      1.82915472	     -0.49533255	      2.52875867	     13.35814335	     -3.67318808	      0.00000000	      0.00000000	     22.57114135	    -15.48838362	     38.36518518	     73.95868181	    -35.36736428	      8.94547260	     94.91914134	     88.57064598	    -28.57969961	     -8.91802869	     65.91029220	    -55.71174012	      0.88013612	     91.67210195	     87.42730806	    -33.03656666	      0.62023138
      2.17241379	     10.82866409	     -4.42133338	     86.02619100	      0.45882717	      0.75890678	      0.70962947	      6.14789917	      7.01527182	      9.93846846	      0.39916977	      0.00696683	     19.37406133	     -9.40478001	      0.00000000	      8.12975801	     -7.21320379	      0.88382141	      8.96100752	      0.15639909	     27.61509754	     -4.52712682	      0.00000000	      0.35723467	      1.17177514	     -0.59237026	      0.66342051	      1.55846093	     -0.62939340	      0.58690084	      2.84905407	     -0.62939340	      0.40828350	      2.84905407	     -0.51832397	      0.33172811	      2.38948386	     -0.48130083	      0.20412389	      1.81507969	     -0.44427769	      2.55169153	     13.25535470	     -3.29458565	      0.00000000	      0.00000000	     23.91411044	    -14.81079403	     37.02925736	     74.20006147	    -36.80579979	      8.96078225	     96.27611989	     88.57754202	    -28.74479929	     -8.85065550	     65.18631429	    -57.06459849	      0.02986858	     93.80547132	     87.36371423	    -34.03482892	     -0.53797657
      2.18965517	     10.87748997	     -4.63841894	     85.89066378	      0.45864842	      0.75796461	      0.70943845	      6.31343254	      7.05690803	     10.22439238	      0.40086685	      0.00699645	     19.54979756	     -9.40601170	      0.00000000	      8.12857928	     -7.25101425	      1.26068295	      8.74787038	      0.15267914	     27.06204632	     -4.87580829	      0.00000000	      0.37744313	      1.18321063	     -0.54738511	      0.70094964	      1.57367014	     -0.58159668	      0.62010132	      2.87685832	     -0.58159668	      0.43137975	      2.87685832	     -0.47896197	      0.35049369	      2.41280312	     -0.44475040	      0.21567100	      1.83279327	     -0.41053883	      2.69603853	     13.38471528	     -3.04439175	      0.00000000	      0.00000000	     25.65709217	    -14.90687583	     35.36315226	     74.67998806	    -37.62234849	      9.44269068	     97.24007780	     88.71257018	    -29.15736739	     -7.58559638	     63.46697836	    -58.52012686	     -1.52245544	     96.06351866	     87.29108938	    -36.29034293	     -1.86004870
      2.20689655	     11.12301570	     -4.72943711	     85.92350846	      0.45800936	      0.75742574	      0.70884872	      6.30644111	      7.26194448	     10.51551670	      0.37247485	      0.00650091	     19.51938792	     -9.58513687	      0.00000000	      8.04232732	     -7.38633183	      2.78703201	      8.62045469	      0.15045532	     26.38899472	     -6.65776476	      0.00000000	      0.38084875	      1.23191349	     -0.57317466	      0.70727421	      1.63844495	     -0.60899807	      0.62569641	      2.99527447	     -0.60899807	      0.43527203	      2.99527447	     -0.50152782	      0.35365615	      2.51211800	     -0.46570441	      0.21761697	      1.90823400	     -0.42988099	      2.72036452	     13.93565184	     -3.18782549	      0.00000000	      0.00000000	     26.42729627	    -14.38590968	     36.41064679	     75.25967364	    -38.09988390	     10.32546623	     97.81337955	     88.91255744	    -29.33461198	     -7.01414895	     60.45761903	    -59.99087738	     -4.22296092	     98.62009085	     87.76390556	    -39.21296704	     -2.01261644
      2.22413793	     11.07076868	     -4.63782970	     86.02857565	      0.45815851	      0.75682502	      0.70880131	      6.18155379	      7.19246267	     10.61637963	      0.35054617	      0.00611818	     19.89152987	     -9.56003203	      0.00000000	      7.79771695	     -7.32537280	      3.16810955	      8.41064849	      0.14679351	     26.06941611	     -6.67350540	      0.00000000	      0.38165494	      1.20241715	     -0.52869361	      0.70877139	      1.59921481	     -0.56173696	      0.62702090	      2.92355706	     -0.56173696	      0.43619343	      2.92355706	     -0.46260691	      0.35440478	      2.45196905	     -0.42956356	      0.21807763	      1.86254417	     -0.39652021	      2.72612307	     13.60198329	     -2.94043527	      0.00000000	      0.00000000	     26.56931437	    -13.59178848	     35.15470138	     74.64713928	    -38.76411739	      9.88313794	     98.29372430	     89.01682247	    -29.30787707	     -7.41715993	     59.15203138	    -60.26514966	     -5.66556953	    100.49264061	     88.32267123	    -39.79300288	     -2.09224157
      2.24137931	     11.06353374	     -4.60357718	     86.02110670	      0.45831739	      0.75624914	      0.70879605	      6.11442994	      7.17609157	     10.31846289	      0.33121047	      0.00578071	     20.26098508	     -8.94352138	      0.00000000	      7.62822923	     -7.29214249	      3.85615013	      8.28180338	      0.14454474	     25.70182496	     -7.43819877	      0.00000000	      0.38553928	      1.19264536	     -0.54524388	      0.71598499	      1.58621833	     -0.57932163	      0.63340248	      2.89979793	     -0.57932163	      0.44063284	      2.89979793	     -0.47708840	      0.35801177	      2.43204242	     -0.44301066	      0.22029714	      1.84740767	     -0.40893291	      2.75386850	     13.49144287	     -3.03248291	      0.00000000	      0.00000000	     26.51192773	    -13.03016106	     35.07524408	     74.13868635	    -38.55329079	      9.52934534	     98.21701644	     89.07268746	    -28.66243704	     -8.45460967	     56.06515860	    -60.75791308	     -9.38789751	    103.16770043	     88.78100489	    -37.75341768	      0.20581219
